<?xml version="1.0" encoding="utf-8"?>
<!-- Generator: Adobe Illustrator 23.0.4, SVG Export Plug-In . SVG Version: 6.00 Build 0)  -->
<svg version="1.1" xmlns="http://www.w3.org/2000/svg" xmlns:xlink="http://www.w3.org/1999/xlink" x="0px" y="0px"
	 viewBox="0 0 500 500" style="enable-background:new 0 0 500 500;" xml:space="preserve">
<style type="text/css">
	.st0{fill:url(#SVGID_1_);}
	.st1{fill:url(#SVGID_2_);}
	.st2{fill:url(#SVGID_3_);}
	.st3{fill:#FFFFFF;}
	.st4{fill:#DDDDDD;}
	.st5{fill:#D1D1D1;}
	.st6{fill:url(#SVGID_4_);}
	.st7{fill:url(#SVGID_5_);}
	.st8{fill:url(#SVGID_6_);}
	.st9{fill:url(#SVGID_7_);}
	.st10{fill:url(#SVGID_8_);}
	.st11{fill:url(#SVGID_9_);}
	.st12{fill:url(#SVGID_10_);}
	.st13{fill:url(#SVGID_11_);}
	.st14{fill:url(#SVGID_12_);}
	.st15{fill:url(#SVGID_13_);}
	.st16{fill:url(#SVGID_14_);}
	.st17{fill:url(#SVGID_15_);}
	.st18{fill:url(#SVGID_16_);}
	.st19{fill:url(#SVGID_17_);}
	.st20{fill:url(#SVGID_18_);}
	.st21{fill:url(#SVGID_19_);}
	.st22{fill:url(#SVGID_20_);}
	.st23{fill:url(#SVGID_21_);}
	.st24{fill:url(#SVGID_22_);}
	.st25{fill:url(#SVGID_23_);}
	.st26{fill:url(#SVGID_24_);}
	.st27{fill:url(#SVGID_25_);}
	.st28{fill:url(#SVGID_26_);}
	.st29{fill:url(#SVGID_27_);}
	.st30{fill:url(#SVGID_28_);}
	.st31{fill:url(#SVGID_29_);}
	.st32{fill:url(#SVGID_30_);}
	.st33{fill:url(#SVGID_31_);}
	.st34{fill:url(#SVGID_32_);}
	.st35{fill:url(#SVGID_33_);}
	.st36{fill:url(#SVGID_34_);}
	.st37{fill:url(#SVGID_35_);}
	.st38{fill:url(#SVGID_36_);}
	.st39{fill:url(#SVGID_37_);}
	.st40{fill:url(#SVGID_38_);}
	.st41{fill:url(#SVGID_39_);}
	.st42{fill:url(#SVGID_40_);}
	.st43{fill:url(#SVGID_41_);}
	.st44{fill:url(#SVGID_42_);}
	.st45{fill:url(#SVGID_43_);}
	.st46{fill:url(#SVGID_44_);}
	.st47{fill:#E3E3E3;}
	.st48{fill:#C2C2C2;}
	.st49{opacity:0.1;}
	.st50{fill:none;stroke:#FFFFFF;stroke-width:1.7191;stroke-miterlimit:10;}
	.st51{fill:#152632;}
	.st52{opacity:0.2;}
	.st53{opacity:0.2;fill:#FFFFFF;}
	.st54{fill:#EFCC55;}
	.st55{fill:#F6DD7E;}
	.st56{opacity:0.7;fill:#FFFFFF;}
	.st57{fill:none;stroke:#C39C29;stroke-width:3.3104;stroke-miterlimit:10;}
	.st58{fill:#C39C29;}
	.st59{fill:#AE392E;}
	.st60{fill:#888888;}
	.st61{fill:url(#SVGID_45_);}
</style>
<g id="BACKGROUND">
</g>
<g id="OBJECTS">
	<g>
		<linearGradient id="SVGID_1_" gradientUnits="userSpaceOnUse" x1="35.9091" y1="165.4898" x2="451.909" y2="369.4896">
			<stop  offset="0" style="stop-color:#FF9900"/>
			<stop  offset="1" style="stop-color:#F2611A"/>
		</linearGradient>
		<path class="st0" d="M309.49,163.19c-30-15-52.23-78.11-141.26-78.11c-87.4,0-158.25,66.76-158.25,149.11
			s63.25,148.94,150.65,148.94c53.94,0,63.32-14.72,96.47-14.72c37.19,0,47.17,34.19,114.17,34.19
			c65.33,0,115.76-54.73,114.03-122.19C481.77,143.4,337.91,177.4,309.49,163.19z"/>
		<linearGradient id="SVGID_2_" gradientUnits="userSpaceOnUse" x1="306.5224" y1="86.5987" x2="378.5188" y2="86.5987">
			<stop  offset="0" style="stop-color:#FF9700"/>
			<stop  offset="1" style="stop-color:#F2611A"/>
		</linearGradient>
		<circle class="st1" cx="342.52" cy="86.6" r="36"/>
		<linearGradient id="SVGID_3_" gradientUnits="userSpaceOnUse" x1="397.6951" y1="137.3983" x2="427.443" y2="137.3983">
			<stop  offset="0" style="stop-color:#FF9700"/>
			<stop  offset="1" style="stop-color:#F2611A"/>
		</linearGradient>
		<circle class="st2" cx="412.57" cy="137.4" r="14.87"/>
	</g>
	<g>
		<g>
			<path class="st3" d="M125.18,329.75c0,4.76-3.94,8.36-8.86,8.36c-5.08,0-8.86-3.61-8.86-8.36v-16.56H68.93
				c-5.41,0-9.18-4.26-9.18-9.02c0-0.66,0.49-3.28,1.48-5.08l31.49-75.77c1.31-3.12,4.59-5.08,7.87-5.08c4.26,0,8.86,3.94,8.86,8.53
				c0,0.82,0,1.8-0.49,2.95c-4.76,10.99-23.29,56.09-28.04,67.08h26.57v-28.54c0-4.76,3.77-8.36,8.86-8.36
				c4.76,0,8.86,3.61,8.86,8.36v28.54h4.59c4.76,0,8.53,3.77,8.53,8.2c0,4.59-3.77,8.2-8.53,8.2h-4.59V329.75z"/>
		</g>
		<g>
			<path class="st4" d="M72.13,302.61c0,2.07-1.68,3.74-3.74,3.74s-3.74-1.68-3.74-3.74c0-2.07,1.68-3.74,3.74-3.74
				S72.13,300.54,72.13,302.61z"/>
			<g>
				<path class="st5" d="M65.53,302.61c0-1.92,1.44-3.49,3.3-3.71c-0.15-0.02-0.29-0.03-0.44-0.03c-2.07,0-3.74,1.68-3.74,3.74
					s1.68,3.74,3.74,3.74c0.15,0,0.3-0.01,0.44-0.03C66.97,306.1,65.53,304.52,65.53,302.61z"/>
			</g>
		</g>
		<g>
			<circle class="st4" cx="117.14" cy="290.98" r="4.87"/>
			<g>
				<path class="st5" d="M113.43,290.98c0-2.49,1.87-4.54,4.29-4.83c-0.19-0.02-0.38-0.04-0.58-0.04c-2.69,0-4.87,2.18-4.87,4.87
					s2.18,4.87,4.87,4.87c0.2,0,0.39-0.01,0.58-0.04C115.3,295.53,113.43,293.47,113.43,290.98z"/>
			</g>
		</g>
		<g>
			<path class="st4" d="M100.26,240.11c-3.08,0.37-5.46,2.98-5.46,6.15c0,2.9,2,5.31,4.69,5.99c1.62-3.9,3.11-7.45,4.36-10.43
				c-1.12-1.09-2.64-1.76-4.32-1.76C99.78,240.06,100.02,240.08,100.26,240.11z"/>
			<path class="st5" d="M95.14,241.88c0.28-0.28,0.59-0.53,0.92-0.76C95.73,241.34,95.42,241.6,95.14,241.88z"/>
			<path class="st5" d="M94.07,243.3c0.29-0.53,0.65-1.01,1.07-1.43C94.72,242.3,94.36,242.78,94.07,243.3z"/>
			<path class="st5" d="M93.6,244.42c0.12-0.39,0.28-0.76,0.47-1.11C93.88,243.66,93.73,244.03,93.6,244.42z"/>
			<path class="st5" d="M99.53,240.06C99.53,240.06,99.53,240.06,99.53,240.06c-1.29,0-2.48,0.39-3.47,1.06
				C97.05,240.45,98.24,240.06,99.53,240.06C99.53,240.06,99.53,240.06,99.53,240.06z"/>
			<path class="st5" d="M93.36,246.89c0.31,3.09,2.89,5.5,6.05,5.56h0C96.25,252.39,93.67,249.98,93.36,246.89z"/>
			<path class="st5" d="M99.4,252.45c0.03-0.07,0.06-0.14,0.09-0.21c-2.69-0.68-4.69-3.09-4.69-5.99c0-3.17,2.39-5.79,5.46-6.15
				c-0.24-0.03-0.48-0.05-0.73-0.05c0,0,0,0,0,0c-1.28,0-2.48,0.39-3.47,1.06c-0.33,0.22-0.64,0.48-0.92,0.76
				c-0.42,0.42-0.78,0.9-1.07,1.43c-0.19,0.35-0.35,0.72-0.47,1.11c-0.18,0.58-0.28,1.2-0.28,1.84c0,0.21,0.01,0.43,0.03,0.63
				C93.67,249.98,96.25,252.39,99.4,252.45z"/>
		</g>
		<g>
			<path class="st4" d="M95.69,309.57c0,1.13-0.92,2.05-2.05,2.05c-1.13,0-2.05-0.92-2.05-2.05c0-1.13,0.92-2.05,2.05-2.05
				C94.77,307.52,95.69,308.43,95.69,309.57z"/>
			<g>
				<path class="st5" d="M92.07,309.57c0-1.05,0.79-1.92,1.81-2.04c-0.08-0.01-0.16-0.02-0.24-0.02c-1.13,0-2.05,0.92-2.05,2.05
					c0,1.13,0.92,2.05,2.05,2.05c0.08,0,0.16-0.01,0.24-0.02C92.86,311.49,92.07,310.62,92.07,309.57z"/>
			</g>
		</g>
		<g>
			<path class="st4" d="M124.06,326.65c0,1.13-0.92,2.05-2.05,2.05c-1.13,0-2.05-0.92-2.05-2.05c0-1.13,0.92-2.05,2.05-2.05
				C123.14,324.6,124.06,325.52,124.06,326.65z"/>
			<g>
				<path class="st5" d="M120.44,326.65c0-1.05,0.79-1.92,1.81-2.04c-0.08-0.01-0.16-0.02-0.24-0.02c-1.13,0-2.05,0.92-2.05,2.05
					c0,1.13,0.92,2.05,2.05,2.05c0.08,0,0.16-0.01,0.24-0.02C121.23,328.57,120.44,327.7,120.44,326.65z"/>
			</g>
		</g>
		<g>
			<path class="st4" d="M85.78,259.72c0,1.13-0.92,2.05-2.05,2.05c-1.13,0-2.05-0.92-2.05-2.05c0-1.13,0.92-2.05,2.05-2.05
				C84.86,257.66,85.78,258.58,85.78,259.72z"/>
			<g>
				<path class="st5" d="M82.16,259.72c0-1.05,0.79-1.92,1.81-2.04c-0.08-0.01-0.16-0.02-0.24-0.02c-1.13,0-2.05,0.92-2.05,2.05
					c0,1.13,0.92,2.05,2.05,2.05c0.08,0,0.16-0.01,0.24-0.02C82.95,261.63,82.16,260.77,82.16,259.72z"/>
			</g>
		</g>
	</g>
	<g>
		<g>
			<path class="st4" d="M356.72,271.25c0,2.07-1.68,3.74-3.74,3.74c-2.07,0-3.74-1.68-3.74-3.74c0-2.07,1.68-3.74,3.74-3.74
				C355.05,267.51,356.72,269.18,356.72,271.25z"/>
			<g>
				<path class="st5" d="M350.13,271.25c0-1.92,1.44-3.49,3.3-3.71c-0.15-0.02-0.29-0.03-0.44-0.03c-2.07,0-3.74,1.68-3.74,3.74
					c0,2.07,1.68,3.74,3.74,3.74c0.15,0,0.3-0.01,0.44-0.03C351.57,274.74,350.13,273.16,350.13,271.25z"/>
			</g>
		</g>
		<g>
			<path class="st4" d="M394.1,311.62c0,2.69-2.18,4.87-4.87,4.87c-2.69,0-4.87-2.18-4.87-4.87c0-2.69,2.18-4.87,4.87-4.87
				C391.92,306.76,394.1,308.94,394.1,311.62z"/>
			<g>
				<path class="st5" d="M385.52,311.62c0-2.49,1.87-4.54,4.29-4.83c-0.19-0.02-0.38-0.04-0.58-0.04c-2.69,0-4.87,2.18-4.87,4.87
					c0,2.69,2.18,4.87,4.87,4.87c0.2,0,0.39-0.01,0.58-0.04C387.4,316.17,385.52,314.11,385.52,311.62z"/>
			</g>
		</g>
		<path class="st3" d="M402.77,296.79h-4.59v-28.54c0-4.76-4.1-8.36-8.86-8.36c-5.08,0-8.86,3.61-8.86,8.36v28.54H353.9
			c3.19-7.38,12.6-30.15,19.88-47.63c1.12-2.69,2.16-5.17,3.07-7.33c0,0-0.01-0.01-0.01-0.01c2.2-5.27,4.02-9.59,5.11-12.1
			c0.49-1.15,0.49-2.13,0.49-2.95c0-4.59-4.59-8.53-8.86-8.53c-3.28,0-6.56,1.97-7.87,5.08l-31.49,75.77
			c-0.98,1.8-1.48,4.43-1.48,5.08c0,4.76,3.77,9.02,9.18,9.02h38.54v16.56c0,4.76,3.77,8.36,8.86,8.36c4.92,0,8.86-3.61,8.86-8.36
			v-16.56h4.59c4.76,0,8.53-3.61,8.53-8.2C411.3,300.56,407.53,296.79,402.77,296.79z"/>
		<g>
			<path class="st4" d="M367.78,308.15c0,1.13-0.92,2.05-2.05,2.05c-1.13,0-2.05-0.92-2.05-2.05c0-1.13,0.92-2.05,2.05-2.05
				C366.86,306.1,367.78,307.02,367.78,308.15z"/>
			<g>
				<path class="st5" d="M364.16,308.15c0-1.05,0.79-1.92,1.81-2.04c-0.08-0.01-0.16-0.02-0.24-0.02c-1.13,0-2.05,0.92-2.05,2.05
					c0,1.13,0.92,2.05,2.05,2.05c0.08,0,0.16-0.01,0.24-0.02C364.95,310.07,364.16,309.2,364.16,308.15z"/>
			</g>
		</g>
		<g>
			<path class="st4" d="M394.79,326.64c0,1.13-0.92,2.05-2.05,2.05c-1.13,0-2.05-0.92-2.05-2.05s0.92-2.05,2.05-2.05
				C393.87,324.59,394.79,325.51,394.79,326.64z"/>
			<g>
				<path class="st5" d="M391.17,326.64c0-1.05,0.79-1.92,1.81-2.04c-0.08-0.01-0.16-0.02-0.24-0.02c-1.13,0-2.05,0.92-2.05,2.05
					s0.92,2.05,2.05,2.05c0.08,0,0.16-0.01,0.24-0.02C391.96,328.56,391.17,327.69,391.17,326.64z"/>
			</g>
		</g>
		<g>
			<path class="st4" d="M394.61,268.85c0,1.33-1.07,2.4-2.4,2.4s-2.4-1.07-2.4-2.4s1.07-2.4,2.4-2.4S394.61,267.52,394.61,268.85z"
				/>
			<g>
				<path class="st5" d="M390.38,268.85c0-1.23,0.92-2.24,2.11-2.38c-0.09-0.01-0.19-0.02-0.29-0.02c-1.33,0-2.4,1.07-2.4,2.4
					s1.07,2.4,2.4,2.4c0.1,0,0.19-0.01,0.29-0.02C391.3,271.09,390.38,270.08,390.38,268.85z"/>
			</g>
		</g>
		<g>
			<path class="st4" d="M390.85,286.98c0,1.79-1.45,3.24-3.24,3.24c-1.79,0-3.24-1.45-3.24-3.24s1.45-3.24,3.24-3.24
				C389.4,283.74,390.85,285.19,390.85,286.98z"/>
			<g>
				<path class="st5" d="M385.14,286.98c0-1.66,1.25-3.03,2.86-3.22c-0.13-0.02-0.25-0.03-0.39-0.03c-1.79,0-3.24,1.45-3.24,3.24
					s1.45,3.24,3.24,3.24c0.13,0,0.26-0.01,0.39-0.02C386.38,290,385.14,288.64,385.14,286.98z"/>
			</g>
		</g>
		<g>
			<path class="st4" d="M339.4,294.59c2.22-0.24,3.96-2.1,3.96-4.38c0-2.19-1.59-3.99-3.67-4.35l-3.03,7.28
				C337.35,293.91,338.31,294.44,339.4,294.59z"/>
			<path class="st5" d="M339.46,294.6c-0.02,0-0.04-0.01-0.06-0.01c-0.16,0.02-0.31,0.05-0.47,0.05c-0.95,0-1.83-0.31-2.55-0.82v0
				c0.72,0.51,1.6,0.82,2.55,0.82C339.11,294.63,339.28,294.62,339.46,294.6z"/>
			<path class="st5" d="M336.66,293.13l-0.28,0.68c0.72,0.51,1.6,0.82,2.55,0.82c0.16,0,0.31-0.03,0.47-0.05
				C338.31,294.44,337.35,293.91,336.66,293.13z"/>
		</g>
		<g>
			<circle class="st4" cx="359.25" cy="257.88" r="4.43"/>
			<g>
				<path class="st5" d="M355.87,257.88c0-2.27,1.71-4.13,3.9-4.4c-0.17-0.02-0.35-0.03-0.53-0.03c-2.45,0-4.43,1.98-4.43,4.43
					c0,2.45,1.98,4.43,4.43,4.43c0.18,0,0.35-0.01,0.53-0.03C357.58,262.01,355.87,260.15,355.87,257.88z"/>
			</g>
		</g>
		<g>
			<circle class="st4" cx="368.34" cy="234.65" r="2.68"/>
			<g>
				<path class="st5" d="M366.3,234.65c0-1.37,1.03-2.5,2.36-2.66c-0.1-0.01-0.21-0.02-0.32-0.02c-1.48,0-2.68,1.2-2.68,2.68
					c0,1.48,1.2,2.68,2.68,2.68c0.11,0,0.21-0.01,0.32-0.02C367.33,237.15,366.3,236.02,366.3,234.65z"/>
			</g>
		</g>
	</g>
	<g>
		<g>
			<linearGradient id="SVGID_4_" gradientUnits="userSpaceOnUse" x1="131.1815" y1="146.6158" x2="206.1811" y2="227.9487">
				<stop  offset="0" style="stop-color:#6A71D1;stop-opacity:0"/>
				<stop  offset="1" style="stop-color:#FFFFFF"/>
			</linearGradient>
			<path class="st6" d="M191.94,208.68c-0.28-0.06-2.06-0.48-2.58-1.32c-0.4-0.65-0.86-2.01-0.95-2.31v-0.03c0,0,0,0.01-0.01,0.02
				c0,0,0-0.01,0-0.01v0.02c-0.1,0.29-0.56,1.66-0.95,2.31c-0.52,0.85-2.3,1.26-2.58,1.32h0.01c0.28,0.06,2.06,0.48,2.58,1.32
				c0.4,0.65,0.86,2.01,0.95,2.31v0.03c0,0,0-0.01,0.01-0.01c0,0,0,0.01,0,0.01v-0.02c0.09-0.29,0.55-1.66,0.95-2.31
				c0.52-0.85,2.3-1.26,2.58-1.32H191.94z"/>
			<linearGradient id="SVGID_5_" gradientUnits="userSpaceOnUse" x1="185.3927" y1="96.6258" x2="260.3917" y2="177.9581">
				<stop  offset="0" style="stop-color:#6A71D1;stop-opacity:0"/>
				<stop  offset="1" style="stop-color:#FFFFFF"/>
			</linearGradient>
			<path class="st7" d="M247.79,158.79c-0.41-0.09-2.96-0.68-3.71-1.9c-0.57-0.93-1.23-2.9-1.37-3.32v-0.04
				c0,0.01-0.01,0.02-0.01,0.02c0,0,0-0.01,0-0.01v0.02c-0.14,0.42-0.8,2.39-1.37,3.32c-0.75,1.22-3.31,1.82-3.72,1.91h0.01
				c0.41,0.09,2.96,0.69,3.71,1.91c0.58,0.93,1.24,2.9,1.37,3.32v0.04c0-0.01,0.01-0.02,0.01-0.02c0,0,0,0.01,0.01,0.01v-0.02
				c0.14-0.42,0.8-2.39,1.37-3.32c0.75-1.22,3.31-1.82,3.72-1.91H247.79z"/>
			<linearGradient id="SVGID_6_" gradientUnits="userSpaceOnUse" x1="166.2695" y1="114.2597" x2="241.2689" y2="195.5924">
				<stop  offset="0" style="stop-color:#6A71D1;stop-opacity:0"/>
				<stop  offset="1" style="stop-color:#FFFFFF"/>
			</linearGradient>
			<path class="st8" d="M225.57,175.91c-0.2-0.04-1.43-0.33-1.79-0.92c-0.28-0.45-0.59-1.4-0.66-1.6v-0.02c0,0,0,0.01,0,0.01
				c0,0,0,0,0-0.01v0.01c-0.07,0.2-0.39,1.15-0.66,1.6c-0.36,0.59-1.6,0.88-1.79,0.92h0.01c0.2,0.04,1.43,0.33,1.79,0.92
				c0.28,0.45,0.6,1.4,0.66,1.6v0.02c0,0,0-0.01,0-0.01c0,0,0,0,0,0.01v-0.01c0.07-0.2,0.38-1.15,0.66-1.6
				C224.15,176.24,225.38,175.95,225.57,175.91L225.57,175.91z"/>
			<linearGradient id="SVGID_7_" gradientUnits="userSpaceOnUse" x1="162.566" y1="117.6734" x2="237.5665" y2="199.0073">
				<stop  offset="0" style="stop-color:#6A71D1;stop-opacity:0"/>
				<stop  offset="1" style="stop-color:#FFFFFF"/>
			</linearGradient>
			<path class="st9" d="M201.65,158.23c-0.14-0.03-0.98-0.23-1.23-0.63c-0.19-0.31-0.41-0.96-0.45-1.1v-0.01c0,0,0,0.01,0,0.01
				c0,0,0,0,0,0v0.01c-0.05,0.14-0.27,0.79-0.46,1.1c-0.25,0.41-1.1,0.6-1.23,0.63h0c0.14,0.03,0.98,0.23,1.23,0.63
				c0.19,0.31,0.41,0.96,0.46,1.1v0.01c0,0,0-0.01,0-0.01c0,0,0,0,0,0v-0.01c0.05-0.14,0.26-0.79,0.46-1.1
				C200.68,158.46,201.53,158.26,201.65,158.23L201.65,158.23z"/>
			<linearGradient id="SVGID_8_" gradientUnits="userSpaceOnUse" x1="151.5485" y1="127.833" x2="226.5488" y2="209.1667">
				<stop  offset="0" style="stop-color:#6A71D1;stop-opacity:0"/>
				<stop  offset="1" style="stop-color:#FFFFFF"/>
			</linearGradient>
			<path class="st10" d="M222.01,202.42c-0.14-0.03-0.98-0.23-1.23-0.63c-0.19-0.31-0.41-0.96-0.45-1.1v-0.01c0,0,0,0.01,0,0.01
				c0,0,0,0,0,0v0.01c-0.05,0.14-0.27,0.79-0.46,1.1c-0.25,0.41-1.1,0.6-1.23,0.63h0c0.14,0.03,0.98,0.23,1.23,0.63
				c0.19,0.31,0.41,0.96,0.46,1.1v0.01c0,0,0-0.01,0-0.01c0,0,0,0,0,0v-0.01c0.04-0.14,0.26-0.79,0.46-1.1
				C221.03,202.65,221.88,202.45,222.01,202.42L222.01,202.42z"/>
			<linearGradient id="SVGID_9_" gradientUnits="userSpaceOnUse" x1="157.8357" y1="134.0256" x2="232.834" y2="215.3572">
				<stop  offset="0" style="stop-color:#6A71D1;stop-opacity:0"/>
				<stop  offset="1" style="stop-color:#FFFFFF"/>
			</linearGradient>
			<path class="st11" d="M182.35,158.78c-0.14-0.03-0.98-0.23-1.23-0.63c-0.19-0.31-0.41-0.96-0.45-1.1v-0.01c0,0,0,0.01,0,0.01
				c0,0,0,0,0,0v0.01c-0.05,0.14-0.27,0.79-0.46,1.1c-0.25,0.41-1.1,0.6-1.23,0.63h0c0.14,0.03,0.98,0.23,1.23,0.63
				c0.19,0.31,0.41,0.96,0.46,1.1v0.01c0,0,0-0.01,0-0.01c0,0,0,0,0,0v-0.01c0.04-0.14,0.26-0.79,0.46-1.1
				C181.37,159.01,182.23,158.81,182.35,158.78L182.35,158.78z"/>
			<linearGradient id="SVGID_10_" gradientUnits="userSpaceOnUse" x1="138.7271" y1="139.6581" x2="213.7255" y2="220.9898">
				<stop  offset="0" style="stop-color:#6A71D1;stop-opacity:0"/>
				<stop  offset="1" style="stop-color:#FFFFFF"/>
			</linearGradient>
			<path class="st12" d="M176.91,179.24c-0.14-0.03-0.98-0.23-1.23-0.63c-0.19-0.31-0.41-0.96-0.45-1.1v-0.01c0,0,0,0.01,0,0.01
				c0,0,0,0,0,0v0.01c-0.05,0.14-0.27,0.79-0.46,1.1c-0.25,0.41-1.1,0.6-1.23,0.63h0c0.14,0.03,0.98,0.23,1.23,0.63
				c0.19,0.31,0.41,0.96,0.46,1.1v0.01c0,0,0-0.01,0-0.01c0,0,0,0,0,0v-0.01c0.05-0.14,0.26-0.79,0.46-1.1
				C175.93,179.46,176.78,179.27,176.91,179.24L176.91,179.24z"/>
			<linearGradient id="SVGID_11_" gradientUnits="userSpaceOnUse" x1="185.0889" y1="96.9026" x2="260.0913" y2="178.2387">
				<stop  offset="0" style="stop-color:#6A71D1;stop-opacity:0"/>
				<stop  offset="1" style="stop-color:#FFFFFF"/>
			</linearGradient>
			<path class="st13" d="M222.01,135.12c-0.14-0.03-0.98-0.23-1.23-0.63c-0.19-0.31-0.41-0.96-0.45-1.1v-0.01c0,0,0,0.01,0,0.01
				c0,0,0,0,0,0v0.01c-0.05,0.14-0.27,0.79-0.46,1.1c-0.25,0.41-1.1,0.6-1.23,0.63h0c0.14,0.03,0.98,0.23,1.23,0.63
				c0.19,0.31,0.41,0.96,0.46,1.1v0.01c0,0,0-0.01,0-0.01c0,0,0,0,0,0v-0.01c0.04-0.14,0.26-0.79,0.46-1.1
				C221.03,135.34,221.88,135.15,222.01,135.12L222.01,135.12z"/>
			<linearGradient id="SVGID_12_" gradientUnits="userSpaceOnUse" x1="172.5476" y1="108.4686" x2="247.548" y2="189.8025">
				<stop  offset="0" style="stop-color:#6A71D1;stop-opacity:0"/>
				<stop  offset="1" style="stop-color:#FFFFFF"/>
			</linearGradient>
			<path class="st14" d="M249.23,189.79c-0.14-0.03-0.98-0.23-1.23-0.63c-0.19-0.31-0.41-0.96-0.45-1.1v-0.01c0,0,0,0.01,0,0.01
				c0,0,0,0,0,0v0.01c-0.05,0.14-0.27,0.79-0.46,1.1c-0.25,0.41-1.1,0.6-1.23,0.63h0c0.14,0.03,0.98,0.23,1.23,0.63
				c0.19,0.31,0.41,0.96,0.46,1.1v0.01c0,0,0-0.01,0-0.01c0,0,0,0,0,0v-0.01c0.05-0.14,0.26-0.79,0.46-1.1
				C248.25,190.02,249.1,189.82,249.23,189.79L249.23,189.79z"/>
			<linearGradient id="SVGID_13_" gradientUnits="userSpaceOnUse" x1="207.0305" y1="132.7622" x2="282.0288" y2="214.0938">
				<stop  offset="0" style="stop-color:#6A71D1;stop-opacity:0"/>
				<stop  offset="1" style="stop-color:#FFFFFF"/>
			</linearGradient>
			<path class="st15" d="M283.71,214.09c-0.14-0.03-0.98-0.23-1.23-0.63c-0.19-0.31-0.41-0.96-0.45-1.1v-0.01c0,0,0,0.01,0,0.01
				c0,0,0,0,0,0v0.01c-0.05,0.14-0.27,0.79-0.46,1.1c-0.25,0.41-1.1,0.6-1.23,0.63h0c0.14,0.03,0.98,0.23,1.23,0.63
				c0.19,0.31,0.41,0.96,0.46,1.1v0.01c0,0,0-0.01,0-0.01c0,0,0,0,0,0v-0.01c0.05-0.14,0.26-0.79,0.46-1.1
				C282.73,214.31,283.58,214.12,283.71,214.09L283.71,214.09z"/>
			<linearGradient id="SVGID_14_" gradientUnits="userSpaceOnUse" x1="234.43" y1="108.0747" x2="334.344" y2="216.426">
				<stop  offset="0" style="stop-color:#6A71D1;stop-opacity:0"/>
				<stop  offset="1" style="stop-color:#FFFFFF"/>
			</linearGradient>
			<path class="st16" d="M336.58,216.42c-0.18-0.04-1.31-0.3-1.64-0.84c-0.25-0.41-0.54-1.28-0.61-1.47v-0.02c0,0,0,0.01,0,0.01
				c0,0,0,0,0-0.01v0.01c-0.06,0.19-0.35,1.06-0.61,1.47c-0.33,0.54-1.47,0.81-1.64,0.84h0.01c0.18,0.04,1.31,0.3,1.64,0.84
				c0.25,0.41,0.55,1.28,0.61,1.47v0.02c0,0,0-0.01,0-0.01c0,0,0,0,0,0.01v-0.01c0.06-0.19,0.35-1.06,0.61-1.47
				C335.28,216.72,336.41,216.46,336.58,216.42L336.58,216.42z"/>
			<linearGradient id="SVGID_15_" gradientUnits="userSpaceOnUse" x1="267.5305" y1="167.1356" x2="342.5288" y2="248.4672">
				<stop  offset="0" style="stop-color:#6A71D1;stop-opacity:0"/>
				<stop  offset="1" style="stop-color:#FFFFFF"/>
			</linearGradient>
			<path class="st17" d="M344.21,248.46c-0.14-0.03-0.98-0.23-1.23-0.63c-0.19-0.31-0.41-0.96-0.45-1.1v-0.01c0,0,0,0.01,0,0.01
				c0,0,0,0,0,0v0.01c-0.05,0.14-0.27,0.79-0.46,1.1c-0.25,0.41-1.1,0.6-1.23,0.63h0c0.14,0.03,0.98,0.23,1.23,0.63
				c0.19,0.31,0.41,0.96,0.46,1.1v0.01c0,0,0-0.01,0-0.01c0,0,0,0,0,0v-0.01c0.05-0.14,0.26-0.79,0.46-1.1
				C343.23,248.69,344.08,248.49,344.21,248.46L344.21,248.46z"/>
		</g>
		<g>
			<linearGradient id="SVGID_16_" gradientUnits="userSpaceOnUse" x1="-0.5049" y1="195.175" x2="47.4368" y2="276.1799">
				<stop  offset="0" style="stop-color:#6A71D1;stop-opacity:0"/>
				<stop  offset="1" style="stop-color:#FFFFFF"/>
			</linearGradient>
			<path class="st18" d="M44.05,262.01c-0.4-0.09-2.91-0.67-3.65-1.87c-0.56-0.91-1.21-2.85-1.35-3.26v-0.04
				c0,0.01-0.01,0.02-0.01,0.02c0,0,0-0.01,0-0.01v0.02c-0.14,0.41-0.79,2.35-1.35,3.26c-0.74,1.2-3.26,1.79-3.65,1.88h0.01
				c0.4,0.09,2.91,0.67,3.65,1.87c0.57,0.91,1.21,2.85,1.35,3.26v0.04c0-0.01,0.01-0.02,0.01-0.02c0,0,0,0.01,0.01,0.01v-0.02
				c0.13-0.41,0.78-2.35,1.35-3.26c0.74-1.2,3.26-1.79,3.66-1.88H44.05z"/>
			<linearGradient id="SVGID_17_" gradientUnits="userSpaceOnUse" x1="44.4141" y1="79.4372" x2="92.3558" y2="160.4421">
				<stop  offset="0" style="stop-color:#6A71D1;stop-opacity:0"/>
				<stop  offset="1" style="stop-color:#FFFFFF"/>
			</linearGradient>
			<path class="st19" d="M88.97,146.27c-0.4-0.09-2.91-0.67-3.65-1.87c-0.56-0.91-1.21-2.85-1.35-3.26v-0.04
				c0,0.01-0.01,0.02-0.01,0.02c0,0,0-0.01,0-0.01v0.02c-0.14,0.41-0.79,2.35-1.35,3.26c-0.74,1.2-3.26,1.79-3.65,1.88h0.01
				c0.4,0.09,2.91,0.67,3.65,1.87c0.57,0.91,1.21,2.85,1.35,3.26v0.04c0-0.01,0.01-0.02,0.01-0.02c0,0,0,0.01,0.01,0.01v-0.02
				c0.13-0.41,0.78-2.35,1.35-3.26c0.74-1.2,3.26-1.79,3.66-1.88H88.97z"/>
			<linearGradient id="SVGID_18_" gradientUnits="userSpaceOnUse" x1="82.7096" y1="124.3687" x2="116.7808" y2="181.9373">
				<stop  offset="0" style="stop-color:#6A71D1;stop-opacity:0"/>
				<stop  offset="1" style="stop-color:#FFFFFF"/>
			</linearGradient>
			<path class="st20" d="M114.37,171.87c-0.29-0.06-2.07-0.48-2.6-1.33c-0.4-0.65-0.86-2.03-0.96-2.32v-0.03c0,0,0,0.01-0.01,0.02
				c0,0,0-0.01,0-0.01v0.02c-0.1,0.29-0.56,1.67-0.96,2.32c-0.53,0.85-2.32,1.27-2.6,1.33h0.01c0.29,0.06,2.07,0.48,2.6,1.33
				c0.4,0.65,0.86,2.03,0.96,2.32v0.03c0,0,0-0.01,0.01-0.01c0,0,0,0.01,0,0.01v-0.02c0.09-0.29,0.56-1.67,0.96-2.32
				c0.53-0.85,2.32-1.27,2.6-1.33H114.37z"/>
			<linearGradient id="SVGID_19_" gradientUnits="userSpaceOnUse" x1="116.956" y1="82.1917" x2="151.0272" y2="139.7603">
				<stop  offset="0" style="stop-color:#6A71D1;stop-opacity:0"/>
				<stop  offset="1" style="stop-color:#FFFFFF"/>
			</linearGradient>
			<path class="st21" d="M148.62,129.69c-0.29-0.06-2.07-0.48-2.6-1.33c-0.4-0.65-0.86-2.03-0.96-2.32v-0.03c0,0,0,0.01-0.01,0.02
				c0,0,0-0.01,0-0.01v0.02c-0.1,0.29-0.56,1.67-0.96,2.32c-0.53,0.85-2.32,1.27-2.6,1.33h0.01c0.29,0.06,2.07,0.48,2.6,1.33
				c0.4,0.65,0.86,2.03,0.96,2.32v0.03c0,0,0-0.01,0.01-0.01c0,0,0,0.01,0,0.01v-0.02c0.09-0.29,0.56-1.67,0.96-2.32
				c0.53-0.85,2.32-1.27,2.6-1.33H148.62z"/>
			<linearGradient id="SVGID_20_" gradientUnits="userSpaceOnUse" x1="31.3862" y1="176.3009" x2="79.3277" y2="257.3056">
				<stop  offset="0" style="stop-color:#6A71D1;stop-opacity:0"/>
				<stop  offset="1" style="stop-color:#FFFFFF"/>
			</linearGradient>
			<path class="st22" d="M71.69,238.53c-0.28-0.06-2.02-0.47-2.54-1.3c-0.39-0.64-0.84-1.98-0.94-2.27v-0.03c0,0,0,0.01-0.01,0.01
				c0,0,0-0.01,0-0.01v0.02c-0.09,0.29-0.55,1.63-0.94,2.27c-0.52,0.84-2.26,1.24-2.54,1.3h0.01c0.28,0.06,2.02,0.47,2.54,1.3
				c0.39,0.64,0.84,1.98,0.94,2.27v0.03c0,0,0-0.01,0-0.01c0,0,0,0.01,0,0.01v-0.02c0.09-0.29,0.54-1.63,0.94-2.27
				C69.67,238.99,71.42,238.59,71.69,238.53L71.69,238.53z"/>
			<linearGradient id="SVGID_21_" gradientUnits="userSpaceOnUse" x1="17.1588" y1="184.7204" x2="65.1009" y2="265.726">
				<stop  offset="0" style="stop-color:#6A71D1;stop-opacity:0"/>
				<stop  offset="1" style="stop-color:#FFFFFF"/>
			</linearGradient>
			<path class="st23" d="M34.02,204.77c-0.4-0.09-2.91-0.67-3.65-1.87c-0.56-0.91-1.21-2.85-1.35-3.26v-0.04
				c0,0.01-0.01,0.02-0.01,0.02c0,0,0-0.01,0-0.01v0.02c-0.14,0.41-0.79,2.35-1.35,3.26c-0.74,1.2-3.26,1.79-3.65,1.88h0.01
				c0.4,0.09,2.91,0.67,3.65,1.87c0.57,0.91,1.21,2.85,1.35,3.26v0.04c0-0.01,0.01-0.02,0.01-0.02c0,0,0,0.01,0.01,0.01v-0.02
				c0.13-0.41,0.78-2.35,1.35-3.26c0.74-1.2,3.26-1.79,3.66-1.88H34.02z"/>
			<linearGradient id="SVGID_22_" gradientUnits="userSpaceOnUse" x1="16.3084" y1="185.2236" x2="64.2503" y2="266.229">
				<stop  offset="0" style="stop-color:#6A71D1;stop-opacity:0"/>
				<stop  offset="1" style="stop-color:#FFFFFF"/>
			</linearGradient>
			<path class="st24" d="M42.97,226.24c-0.19-0.04-1.39-0.32-1.75-0.9c-0.27-0.44-0.58-1.36-0.64-1.56v-0.02c0,0,0,0.01,0,0.01
				c0,0,0,0,0-0.01v0.01c-0.06,0.2-0.38,1.12-0.65,1.56c-0.35,0.58-1.56,0.86-1.75,0.9h0.01c0.19,0.04,1.39,0.32,1.75,0.9
				c0.27,0.44,0.58,1.36,0.64,1.56v0.02c0,0,0-0.01,0-0.01c0,0,0,0,0,0.01v-0.01c0.06-0.2,0.37-1.12,0.64-1.56
				C41.58,226.56,42.79,226.28,42.97,226.24L42.97,226.24z"/>
			<linearGradient id="SVGID_23_" gradientUnits="userSpaceOnUse" x1="-5.0888" y1="197.887" x2="42.8531" y2="278.8924">
				<stop  offset="0" style="stop-color:#6A71D1;stop-opacity:0"/>
				<stop  offset="1" style="stop-color:#FFFFFF"/>
			</linearGradient>
			<path class="st25" d="M27.74,249.31c-0.19-0.04-1.39-0.32-1.75-0.9c-0.27-0.44-0.58-1.36-0.64-1.56v-0.02c0,0,0,0.01,0,0.01
				c0,0,0,0,0-0.01v0.01c-0.06,0.2-0.38,1.12-0.65,1.56c-0.35,0.58-1.56,0.86-1.75,0.9h0.01c0.19,0.04,1.39,0.32,1.75,0.9
				c0.27,0.44,0.58,1.36,0.64,1.56v0.02c0,0,0-0.01,0-0.01c0,0,0,0,0,0.01v-0.01c0.06-0.2,0.37-1.12,0.64-1.56
				C26.35,249.63,27.55,249.35,27.74,249.31L27.74,249.31z"/>
			<linearGradient id="SVGID_24_" gradientUnits="userSpaceOnUse" x1="43.6195" y1="169.0601" x2="91.5614" y2="250.0654">
				<stop  offset="0" style="stop-color:#6A71D1;stop-opacity:0"/>
				<stop  offset="1" style="stop-color:#FFFFFF"/>
			</linearGradient>
			<path class="st26" d="M69.73,209.15c-0.19-0.04-1.39-0.32-1.75-0.9c-0.27-0.44-0.58-1.36-0.64-1.56v-0.02c0,0,0,0.01,0,0.01
				c0,0,0,0,0-0.01v0.01c-0.06,0.2-0.38,1.12-0.65,1.56c-0.35,0.58-1.56,0.86-1.75,0.9h0.01c0.19,0.04,1.39,0.32,1.75,0.9
				c0.27,0.44,0.58,1.36,0.64,1.56v0.02c0,0,0-0.01,0-0.01c0,0,0,0,0,0.01v-0.01c0.06-0.2,0.37-1.12,0.64-1.56
				C68.35,209.47,69.55,209.19,69.73,209.15L69.73,209.15z"/>
			<linearGradient id="SVGID_25_" gradientUnits="userSpaceOnUse" x1="7.479" y1="176.487" x2="55.4209" y2="257.4923">
				<stop  offset="0" style="stop-color:#6A71D1;stop-opacity:0"/>
				<stop  offset="1" style="stop-color:#FFFFFF"/>
			</linearGradient>
			<path class="st27" d="M64.53,268.85c-0.19-0.04-1.39-0.32-1.75-0.9c-0.27-0.44-0.58-1.36-0.64-1.56v-0.02c0,0,0,0.01,0,0.01
				c0,0,0,0,0-0.01v0.01c-0.06,0.2-0.38,1.12-0.65,1.56c-0.35,0.58-1.56,0.86-1.75,0.9h0.01c0.19,0.04,1.39,0.32,1.75,0.9
				c0.27,0.44,0.58,1.36,0.64,1.56v0.02c0,0,0-0.01,0-0.01c0,0,0,0,0,0.01v-0.01c0.06-0.2,0.37-1.12,0.64-1.56
				C63.14,269.17,64.35,268.89,64.53,268.85L64.53,268.85z"/>
			<linearGradient id="SVGID_26_" gradientUnits="userSpaceOnUse" x1="150.6567" y1="253.3847" x2="198.5971" y2="334.3875">
				<stop  offset="0" style="stop-color:#6A71D1;stop-opacity:0"/>
				<stop  offset="1" style="stop-color:#FFFFFF"/>
			</linearGradient>
			<path class="st28" d="M207.71,345.74c-0.19-0.04-1.39-0.32-1.75-0.9c-0.27-0.44-0.58-1.36-0.64-1.56v-0.02c0,0,0,0.01,0,0.01
				c0,0,0,0,0-0.01v0.01c-0.06,0.2-0.38,1.12-0.65,1.56c-0.35,0.58-1.56,0.86-1.75,0.9h0.01c0.19,0.04,1.39,0.32,1.75,0.9
				c0.27,0.44,0.58,1.36,0.64,1.56v0.02c0,0,0-0.01,0-0.01c0,0,0,0,0,0.01v-0.01c0.06-0.2,0.37-1.12,0.64-1.56
				C206.32,346.06,207.52,345.78,207.71,345.74L207.71,345.74z"/>
			<linearGradient id="SVGID_27_" gradientUnits="userSpaceOnUse" x1="58.5404" y1="266.8473" x2="112.6959" y2="358.3514">
				<stop  offset="0" style="stop-color:#6A71D1;stop-opacity:0"/>
				<stop  offset="1" style="stop-color:#FFFFFF"/>
			</linearGradient>
			<path class="st29" d="M122.99,371.18c-0.22-0.05-1.57-0.36-1.97-1.01c-0.3-0.49-0.65-1.54-0.73-1.76v-0.02c0,0,0,0.01,0,0.01
				c0,0,0-0.01,0-0.01v0.01c-0.07,0.22-0.42,1.27-0.73,1.76c-0.4,0.65-1.76,0.97-1.97,1.01h0.01c0.22,0.05,1.57,0.36,1.97,1.01
				c0.31,0.49,0.66,1.54,0.73,1.76v0.02c0,0,0-0.01,0-0.01c0,0,0,0,0,0.01v-0.01c0.07-0.22,0.42-1.27,0.73-1.76
				C121.42,371.54,122.78,371.23,122.99,371.18L122.99,371.18z"/>
			<linearGradient id="SVGID_28_" gradientUnits="userSpaceOnUse" x1="87.8026" y1="285.2735" x2="137.8459" y2="369.8295">
				<stop  offset="0" style="stop-color:#6A71D1;stop-opacity:0"/>
				<stop  offset="1" style="stop-color:#FFFFFF"/>
			</linearGradient>
			<path class="st30" d="M147.35,381.68c-0.2-0.04-1.45-0.34-1.82-0.93c-0.28-0.46-0.6-1.42-0.67-1.63v-0.02c0,0,0,0.01,0,0.01
				c0,0,0,0,0-0.01v0.01c-0.07,0.21-0.39,1.17-0.67,1.63c-0.37,0.6-1.63,0.89-1.82,0.94h0.01c0.2,0.04,1.45,0.34,1.82,0.94
				c0.28,0.46,0.61,1.42,0.67,1.63v0.02c0,0,0-0.01,0-0.01c0,0,0,0,0,0.01v-0.01c0.07-0.21,0.39-1.17,0.67-1.63
				C145.91,382.02,147.16,381.73,147.35,381.68L147.35,381.68z"/>
		</g>
		<g>
			<linearGradient id="SVGID_29_" gradientUnits="userSpaceOnUse" x1="291.5219" y1="321.4917" x2="340.9524" y2="373.0949">
				<stop  offset="0" style="stop-color:#6A71D1;stop-opacity:0"/>
				<stop  offset="1" style="stop-color:#FFFFFF"/>
			</linearGradient>
			<path class="st31" d="M314.72,349.29c0.27,0.04,1.93,0.35,2.45,1.12c0.4,0.58,0.88,1.84,0.98,2.1l0,0.03c0,0,0-0.01,0-0.01
				c0,0,0,0.01,0,0.01l0-0.02c0.08-0.28,0.45-1.57,0.79-2.18c0.45-0.81,2.08-1.27,2.34-1.34l-0.01,0c-0.27-0.05-1.93-0.36-2.45-1.12
				c-0.4-0.58-0.88-1.84-0.98-2.1l0-0.03c0,0,0,0.01,0,0.01c0,0,0-0.01,0-0.01l0,0.02c-0.08,0.27-0.44,1.57-0.79,2.18
				C316.61,348.76,314.97,349.22,314.72,349.29L314.72,349.29z"/>
			<linearGradient id="SVGID_30_" gradientUnits="userSpaceOnUse" x1="273.768" y1="338.4985" x2="323.1982" y2="390.1014">
				<stop  offset="0" style="stop-color:#6A71D1;stop-opacity:0"/>
				<stop  offset="1" style="stop-color:#FFFFFF"/>
			</linearGradient>
			<path class="st32" d="M297.28,365.53c0.19,0.03,1.34,0.25,1.71,0.78c0.28,0.41,0.61,1.28,0.68,1.46l0,0.02c0,0,0-0.01,0-0.01
				c0,0,0,0,0,0.01l0-0.01c0.05-0.19,0.31-1.09,0.55-1.52c0.31-0.56,1.45-0.88,1.63-0.93l-0.01,0c-0.19-0.03-1.34-0.25-1.71-0.78
				c-0.28-0.41-0.61-1.28-0.68-1.46l0-0.02c0,0,0,0.01,0,0.01c0,0,0,0,0-0.01l0,0.01c-0.05,0.19-0.31,1.09-0.55,1.52
				C298.59,365.16,297.46,365.48,297.28,365.53L297.28,365.53z"/>
			<linearGradient id="SVGID_31_" gradientUnits="userSpaceOnUse" x1="277.2295" y1="335.1831" x2="326.6593" y2="386.7856">
				<stop  offset="0" style="stop-color:#6A71D1;stop-opacity:0"/>
				<stop  offset="1" style="stop-color:#FFFFFF"/>
			</linearGradient>
			<path class="st33" d="M323.02,386.56c0.27,0.04,1.93,0.35,2.45,1.12c0.4,0.58,0.88,1.84,0.98,2.1l0,0.03c0,0,0-0.01,0-0.01
				c0,0,0,0.01,0,0.01l0-0.02c0.08-0.28,0.45-1.57,0.79-2.18c0.45-0.81,2.08-1.27,2.34-1.34l-0.01,0c-0.27-0.05-1.93-0.36-2.45-1.12
				c-0.4-0.58-0.88-1.83-0.98-2.1l0-0.03c0,0,0,0.01,0,0.01c0,0,0-0.01,0-0.01l0,0.02c-0.08,0.27-0.44,1.57-0.79,2.18
				C324.91,386.03,323.27,386.49,323.02,386.56L323.02,386.56z"/>
			<linearGradient id="SVGID_32_" gradientUnits="userSpaceOnUse" x1="365.5172" y1="305.8308" x2="414.947" y2="357.4333">
				<stop  offset="0" style="stop-color:#6A71D1;stop-opacity:0"/>
				<stop  offset="1" style="stop-color:#FFFFFF"/>
			</linearGradient>
			<path class="st34" d="M411.31,357.21c0.27,0.04,1.93,0.35,2.45,1.12c0.4,0.58,0.88,1.84,0.98,2.1l0,0.03c0,0,0-0.01,0-0.01
				c0,0,0,0.01,0,0.01l0-0.02c0.08-0.28,0.45-1.57,0.79-2.18c0.45-0.81,2.08-1.27,2.34-1.34l-0.01,0c-0.27-0.05-1.93-0.36-2.45-1.12
				c-0.4-0.58-0.88-1.83-0.98-2.1l0-0.03c0,0,0,0.01,0,0.01c0,0,0-0.01,0-0.01l0,0.02c-0.08,0.27-0.44,1.57-0.79,2.18
				C413.19,356.68,411.56,357.14,411.31,357.21L411.31,357.21z"/>
			<linearGradient id="SVGID_33_" gradientUnits="userSpaceOnUse" x1="363.9617" y1="342.6482" x2="405.5967" y2="386.1133">
				<stop  offset="0" style="stop-color:#6A71D1;stop-opacity:0"/>
				<stop  offset="1" style="stop-color:#FFFFFF"/>
			</linearGradient>
			<path class="st35" d="M402.53,385.92c0.22,0.04,1.63,0.3,2.07,0.94c0.33,0.49,0.74,1.55,0.83,1.77l0,0.02c0,0,0-0.01,0-0.01
				c0,0,0,0,0,0.01l0-0.01c0.06-0.23,0.38-1.32,0.66-1.84c0.38-0.68,1.76-1.07,1.97-1.13l-0.01,0c-0.22-0.04-1.63-0.3-2.07-0.94
				c-0.34-0.49-0.74-1.55-0.83-1.77l0-0.02c0,0,0,0.01,0,0.01c0,0,0,0,0-0.01l0,0.01c-0.06,0.23-0.37,1.32-0.66,1.84
				C404.12,385.48,402.74,385.87,402.53,385.92L402.53,385.92z"/>
			<linearGradient id="SVGID_34_" gradientUnits="userSpaceOnUse" x1="373.256" y1="200.1516" x2="414.891" y2="243.6168">
				<stop  offset="0" style="stop-color:#6A71D1;stop-opacity:0"/>
				<stop  offset="1" style="stop-color:#FFFFFF"/>
			</linearGradient>
			<path class="st36" d="M411.83,243.43c0.22,0.04,1.63,0.3,2.07,0.94c0.33,0.49,0.74,1.55,0.83,1.77l0,0.02c0,0,0-0.01,0-0.01
				c0,0,0,0.01,0,0.01l0-0.01c0.06-0.23,0.38-1.32,0.66-1.84c0.38-0.68,1.76-1.07,1.97-1.13l-0.01,0c-0.22-0.04-1.63-0.3-2.07-0.94
				c-0.34-0.49-0.74-1.55-0.83-1.77l0-0.02c0,0,0,0.01,0,0.01c0,0,0,0,0-0.01l0,0.01c-0.06,0.23-0.37,1.32-0.66,1.84
				C413.41,242.98,412.04,243.37,411.83,243.43L411.83,243.43z"/>
			<linearGradient id="SVGID_35_" gradientUnits="userSpaceOnUse" x1="396.6417" y1="227.9957" x2="452.4111" y2="286.2165">
				<stop  offset="0" style="stop-color:#6A71D1;stop-opacity:0"/>
				<stop  offset="1" style="stop-color:#FFFFFF"/>
			</linearGradient>
			<path class="st37" d="M448.31,285.96c0.3,0.05,2.18,0.4,2.77,1.26c0.45,0.66,0.99,2.07,1.11,2.37l0,0.03c0,0,0-0.01,0-0.02
				c0,0,0,0.01,0,0.01l0-0.02c0.09-0.31,0.5-1.77,0.89-2.46c0.51-0.92,2.35-1.44,2.64-1.51l-0.01,0c-0.3-0.05-2.18-0.4-2.77-1.26
				c-0.45-0.66-1-2.07-1.11-2.37l0-0.03c0,0,0,0.01,0,0.02c0,0,0-0.01,0-0.01l0,0.02c-0.08,0.31-0.5,1.77-0.89,2.46
				c-0.51,0.92-2.35,1.43-2.64,1.51L448.31,285.96z"/>
			<linearGradient id="SVGID_36_" gradientUnits="userSpaceOnUse" x1="279.8039" y1="332.7166" x2="329.2341" y2="384.3195">
				<stop  offset="0" style="stop-color:#6A71D1;stop-opacity:0"/>
				<stop  offset="1" style="stop-color:#FFFFFF"/>
			</linearGradient>
			<path class="st38" d="M316.5,372.74c0.13,0.02,0.92,0.17,1.17,0.54c0.19,0.28,0.42,0.88,0.47,1.01l0,0.01c0,0,0,0,0-0.01
				c0,0,0,0,0,0l0-0.01c0.04-0.13,0.21-0.75,0.38-1.04c0.22-0.39,1-0.61,1.12-0.64l0,0c-0.13-0.02-0.92-0.17-1.17-0.54
				c-0.19-0.28-0.42-0.88-0.47-1.01l0-0.01c0,0,0,0,0,0.01c0,0,0,0,0,0l0,0.01c-0.04,0.13-0.21,0.75-0.38,1.04
				C317.4,372.48,316.62,372.7,316.5,372.74L316.5,372.74z"/>
			<linearGradient id="SVGID_37_" gradientUnits="userSpaceOnUse" x1="292.4537" y1="320.5994" x2="341.8839" y2="372.2024">
				<stop  offset="0" style="stop-color:#6A71D1;stop-opacity:0"/>
				<stop  offset="1" style="stop-color:#FFFFFF"/>
			</linearGradient>
			<path class="st39" d="M325.81,357.13c0.13,0.02,0.92,0.17,1.17,0.54c0.19,0.28,0.42,0.88,0.47,1.01l0,0.01c0,0,0,0,0-0.01
				c0,0,0,0,0,0l0-0.01c0.04-0.13,0.21-0.75,0.38-1.04c0.22-0.39,1-0.61,1.12-0.64l0,0c-0.13-0.02-0.92-0.17-1.17-0.54
				c-0.19-0.28-0.42-0.88-0.47-1.01l0-0.01c0,0,0,0.01,0,0.01c0,0,0,0,0,0l0,0.01c-0.04,0.13-0.21,0.75-0.38,1.04
				C326.71,356.88,325.93,357.1,325.81,357.13L325.81,357.13z"/>
			<linearGradient id="SVGID_38_" gradientUnits="userSpaceOnUse" x1="264.9051" y1="346.9904" x2="314.3338" y2="398.5918">
				<stop  offset="0" style="stop-color:#6A71D1;stop-opacity:0"/>
				<stop  offset="1" style="stop-color:#FFFFFF"/>
			</linearGradient>
			<path class="st40" d="M299.45,384.76c0.13,0.02,0.92,0.17,1.17,0.54c0.19,0.28,0.42,0.88,0.47,1.01l0,0.01c0,0,0,0,0-0.01
				c0,0,0,0,0,0l0-0.01c0.04-0.13,0.21-0.75,0.38-1.04c0.22-0.39,1-0.61,1.12-0.64l0,0c-0.13-0.02-0.92-0.17-1.17-0.54
				c-0.19-0.28-0.42-0.88-0.47-1.01l0-0.01c0,0,0,0,0,0.01c0,0,0,0,0,0l0,0.01c-0.04,0.13-0.21,0.75-0.38,1.04
				C300.35,384.51,299.57,384.73,299.45,384.76L299.45,384.76z"/>
			<linearGradient id="SVGID_39_" gradientUnits="userSpaceOnUse" x1="268.2367" y1="343.7971" x2="317.6669" y2="395.4001">
				<stop  offset="0" style="stop-color:#6A71D1;stop-opacity:0"/>
				<stop  offset="1" style="stop-color:#FFFFFF"/>
			</linearGradient>
			<path class="st41" d="M275.29,352.87c0.13,0.02,0.92,0.17,1.17,0.54c0.19,0.28,0.42,0.88,0.47,1.01l0,0.01c0,0,0,0,0-0.01
				c0,0,0,0,0,0l0-0.01c0.04-0.13,0.21-0.75,0.38-1.04c0.22-0.39,1-0.61,1.12-0.64l0,0c-0.13-0.02-0.92-0.17-1.17-0.54
				c-0.19-0.28-0.42-0.88-0.47-1.01l0-0.01c0,0,0,0,0,0.01c0,0,0,0,0,0l0,0.01c-0.04,0.13-0.21,0.75-0.38,1.04
				C276.19,352.61,275.41,352.83,275.29,352.87L275.29,352.87z"/>
		</g>
		<linearGradient id="SVGID_40_" gradientUnits="userSpaceOnUse" x1="106.3554" y1="158.2315" x2="141.7587" y2="158.2315">
			<stop  offset="0" style="stop-color:#6A71D1;stop-opacity:0"/>
			<stop  offset="1" style="stop-color:#FFFFFF"/>
		</linearGradient>
		<path class="st42" d="M139.01,175.42l-32.66-36.2l33.8,34.91c0,0,2.25,2.15,1.42,2.98C140.91,177.78,139.01,175.42,139.01,175.42z
			"/>
		<linearGradient id="SVGID_41_" gradientUnits="userSpaceOnUse" x1="145.0657" y1="357.7871" x2="168.1422" y2="357.7871">
			<stop  offset="0" style="stop-color:#6A71D1;stop-opacity:0"/>
			<stop  offset="1" style="stop-color:#FFFFFF"/>
		</linearGradient>
		<path class="st43" d="M166.35,368.99l-21.29-23.59l22.03,22.76c0,0,1.47,1.4,0.93,1.94C167.59,370.53,166.35,368.99,166.35,368.99
			z"/>
		<linearGradient id="SVGID_42_" gradientUnits="userSpaceOnUse" x1="349.6054" y1="353.5966" x2="381.7227" y2="353.5966">
			<stop  offset="0" style="stop-color:#6A71D1;stop-opacity:0"/>
			<stop  offset="1" style="stop-color:#FFFFFF"/>
		</linearGradient>
		<path class="st44" d="M379.23,369.19l-29.63-32.84l30.66,31.67c0,0,2.04,1.95,1.29,2.7C380.95,371.33,379.23,369.19,379.23,369.19
			z"/>
		<linearGradient id="SVGID_43_" gradientUnits="userSpaceOnUse" x1="426.2136" y1="352.1506" x2="444.754" y2="352.1506">
			<stop  offset="0" style="stop-color:#6A71D1;stop-opacity:0"/>
			<stop  offset="1" style="stop-color:#FFFFFF"/>
		</linearGradient>
		<path class="st45" d="M443.32,361.15l-17.1-18.96l17.7,18.28c0,0,1.18,1.12,0.74,1.56C444.31,362.39,443.32,361.15,443.32,361.15z
			"/>
		<linearGradient id="SVGID_44_" gradientUnits="userSpaceOnUse" x1="135.7955" y1="236.2871" x2="154.3359" y2="236.2871">
			<stop  offset="0" style="stop-color:#6A71D1;stop-opacity:0"/>
			<stop  offset="1" style="stop-color:#FFFFFF"/>
		</linearGradient>
		<path class="st46" d="M152.9,245.29l-17.1-18.96l17.7,18.28c0,0,1.18,1.12,0.74,1.56C153.89,246.53,152.9,245.29,152.9,245.29z"/>
	</g>
	<g>
		<path class="st47" d="M298.61,254.51l-84.32-28.03c-6.85-2.28-10.55-9.67-8.28-16.52l19.87-59.77c2.28-6.85,9.67-10.55,16.52-8.28
			l84.32,28.03c6.85,2.28,10.55,9.67,8.28,16.52l-19.87,59.77C312.85,253.08,305.46,256.78,298.61,254.51z"/>
		
			<rect x="235.53" y="176.25" transform="matrix(0.9489 0.3155 -0.3155 0.9489 80.2416 -73.1766)" class="st48" width="61.26" height="70.05"/>
		<path class="st49" d="M304.33,187.05l-54.94-18.27c-1.01-1.02-2.21-1.84-3.51-2.42c0.48,2.6,1.23,5.13,2.25,7.55v0
			c1.72,4.08,4.16,7.84,7.23,11.07c0.04,0.04,0.08,0.08,0.12,0.13c0.38,0.4,0.77,0.79,1.18,1.17c0.1,0.09,0.2,0.18,0.29,0.27
			c0.35,0.33,0.71,0.65,1.08,0.96c0.13,0.11,0.27,0.23,0.4,0.34c0.34,0.28,0.68,0.56,1.03,0.83c0.16,0.13,0.32,0.25,0.49,0.37
			c0.33,0.25,0.67,0.49,1.01,0.73c0.18,0.13,0.37,0.26,0.56,0.38c0.33,0.22,0.67,0.44,1.01,0.65c0.2,0.12,0.4,0.25,0.6,0.37
			c0.34,0.2,0.69,0.4,1.04,0.59c0.21,0.12,0.42,0.23,0.64,0.35c0.36,0.19,0.72,0.36,1.09,0.54c0.21,0.1,0.42,0.21,0.64,0.31
			c0.4,0.18,0.81,0.35,1.22,0.52c0.19,0.08,0.37,0.16,0.56,0.24c0.6,0.24,1.21,0.46,1.84,0.67l1.9,0.63
			c0.62,0.21,1.25,0.39,1.87,0.56c0.2,0.05,0.39,0.1,0.59,0.15c0.43,0.11,0.86,0.22,1.29,0.31c0.23,0.05,0.46,0.09,0.7,0.14
			c0.4,0.08,0.8,0.16,1.2,0.22c0.24,0.04,0.48,0.07,0.72,0.1c0.39,0.06,0.79,0.11,1.18,0.15c0.24,0.03,0.47,0.05,0.71,0.07
			c0.4,0.04,0.8,0.07,1.2,0.09c0.22,0.01,0.45,0.02,0.67,0.03c0.42,0.01,0.83,0.02,1.25,0.02c0.2,0,0.41,0,0.61,0
			c0.44-0.01,0.88-0.02,1.32-0.05c0.18-0.01,0.35-0.02,0.53-0.03c0.48-0.03,0.96-0.08,1.44-0.13c0.13-0.01,0.26-0.03,0.39-0.04
			c0.55-0.07,1.1-0.14,1.65-0.24c0.06-0.01,0.11-0.02,0.17-0.03c6.9-1.18,13.35-4.33,18.52-9.03
			C306.83,187.04,305.58,186.93,304.33,187.05z"/>
		<g>
			<line class="st50" x1="320.63" y1="171.64" x2="334.59" y2="129.63"/>
			<path class="st48" d="M337.7,130.97c-0.57,1.73-2.44,2.66-4.17,2.09c-1.73-0.57-2.66-2.44-2.09-4.17
				c0.57-1.73,2.44-2.66,4.17-2.09C337.34,127.37,338.27,129.24,337.7,130.97z"/>
			<line class="st50" x1="247.97" y1="147.48" x2="261.93" y2="105.48"/>
			<path class="st48" d="M242.63,158.84l6.28,2.09l8.81-26.51l-6.28-2.09c-3.34-1.11-6.96,0.7-8.07,4.04l-4.79,14.4
				C237.47,154.12,239.28,157.73,242.63,158.84z"/>
			<g class="st49">
				<path d="M250.77,155.34l-6.93-2.31c-2.99-0.99-4.6-4.22-3.61-7.2l-1.64,4.94c-1.11,3.34,0.7,6.96,4.04,8.07l6.28,2.09
					L250.77,155.34z"/>
			</g>
			<path class="st48" d="M316.88,183.53l-6.28-2.09l8.81-26.51l6.28,2.09c3.34,1.11,5.15,4.72,4.04,8.07l-4.79,14.4
				C323.84,182.83,320.22,184.64,316.88,183.53z"/>
			<g class="st49">
				<path d="M326.88,173.67c-0.97,2.92-4.13,4.5-7.05,3.53l-7.05-2.34l-2.19,6.58l6.28,2.09c3.34,1.11,6.96-0.7,8.07-4.04
					L326.88,173.67z"/>
			</g>
			<path class="st3" d="M273.85,191.34l-1.9-0.63c-18.99-6.31-29.36-27.02-23.05-46.01v0c6.31-18.99,27.02-29.36,46.01-23.05
				l1.9,0.63c18.99,6.31,29.36,27.02,23.05,46.01v0C313.54,187.28,292.84,197.65,273.85,191.34z"/>
			<path class="st51" d="M249.92,170.23c3.93,9.35,11.7,17.04,22.03,20.48l1.9,0.63c10.33,3.43,21.15,1.92,29.9-3.21l2.56-4.68
				c4.44-8.14,9.46-22.91,10.98-32.06l-0.01,0.02c0.76-4.57-1.91-9.03-6.3-10.49l-38.58-12.83c-4.39-1.46-9.2,0.52-11.33,4.63
				l0.01-0.02c-4.26,8.24-9.08,23.07-10.4,32.25L249.92,170.23z"/>
			<path class="st52" d="M317.26,151.45c0.25-1.5,0.12-2.99-0.31-4.36c-0.22,0.86-0.46,1.71-0.74,2.57
				c-6.39,19.21-29.09,35.48-48.3,29.09c-7.19-2.39-13.14-6.79-17.44-12.37l-0.55,3.85c3.93,9.35,11.7,17.04,22.03,20.48l1.9,0.63
				c10.33,3.43,21.15,1.92,29.9-3.21l2.56-4.68C310.75,175.3,315.74,160.6,317.26,151.45z"/>
			
				<ellipse transform="matrix(0.8926 -0.4508 0.4508 0.8926 -38.986 139.364)" class="st53" cx="273.04" cy="151.52" rx="9.67" ry="9.67"/>
			<path class="st53" d="M264.27,166.32c-0.69,2.08-2.94,3.21-5.03,2.52c-2.08-0.69-3.21-2.94-2.52-5.03
				c0.69-2.08,2.94-3.21,5.03-2.52C263.84,161.98,264.97,164.24,264.27,166.32z"/>
			<path class="st48" d="M265.04,106.81c-0.57,1.73-2.44,2.66-4.17,2.09c-1.73-0.57-2.66-2.44-2.09-4.17
				c0.57-1.73,2.44-2.66,4.17-2.09C264.68,103.22,265.61,105.08,265.04,106.81z"/>
		</g>
	</g>
	<g>
		<g>
			<path class="st3" d="M237.66,187.19c-15.91,0-30.73,4.67-43.19,12.68c-22.12,14.23-36.79,39.05-36.79,67.3
				c0,44.17,35.81,79.98,79.98,79.98c21.44,0,40.88-8.45,55.24-22.18c15.23-14.56,24.74-35.07,24.74-57.81
				C317.64,223,281.83,187.19,237.66,187.19z"/>
			<g>
				<path class="st54" d="M169.73,257.67c0-22.74,9.5-43.24,24.74-57.81c-22.12,14.23-36.79,39.05-36.79,67.3
					c0,44.17,35.81,79.98,79.98,79.98c21.44,0,40.88-8.45,55.24-22.18c-12.46,8.01-27.27,12.68-43.19,12.68
					C205.54,337.66,169.73,301.85,169.73,257.67z"/>
				<path class="st55" d="M317.64,267.17c0-44.17-35.81-79.98-79.98-79.98c-15.91,0-30.73,4.67-43.19,12.68
					c-15.23,14.56-24.74,35.07-24.74,57.81c0,44.17,35.81,79.98,79.98,79.98c15.91,0,30.73-4.67,43.19-12.68
					C308.13,310.41,317.64,289.91,317.64,267.17z"/>
			</g>
			<path class="st56" d="M294.17,238.87c-4.55,7.82-20.77,6.86-36.23-2.13c-15.46-9-24.31-22.63-19.76-30.45
				c4.55-7.82,20.77-6.86,36.23,2.13C289.87,217.42,298.72,231.05,294.17,238.87z"/>
			<g>
				<path class="st57" d="M246.65,299.15c0,3.99-3.23,7.22-7.22,7.22c-3.99,0-7.22-3.23-7.22-7.22c0-3.99,3.23-7.22,7.22-7.22
					C243.42,291.94,246.65,295.17,246.65,299.15z"/>
				<path class="st57" d="M217.62,296.47c0,10.11-8.19,18.3-18.3,18.3c-10.11,0-18.3-8.2-18.3-18.3c0-10.11,8.19-18.3,18.3-18.3
					C209.42,278.17,217.62,286.36,217.62,296.47z"/>
				<path class="st57" d="M246.65,299.15c0,3.99-3.23,7.22-7.22,7.22c-3.99,0-7.22-3.23-7.22-7.22c0-3.99,3.23-7.22,7.22-7.22
					C243.42,291.94,246.65,295.17,246.65,299.15z"/>
				<path class="st58" d="M206.22,219.7c2.03,3.43,0.9,7.86-2.53,9.89c-3.43,2.03-7.86,0.9-9.89-2.53c-2.03-3.43-0.9-7.86,2.53-9.89
					C199.76,215.14,204.18,216.28,206.22,219.7z"/>
				<path class="st58" d="M302.53,273.51c0,3.6-2.92,6.53-6.53,6.53c-3.6,0-6.53-2.92-6.53-6.53c0-3.61,2.92-6.53,6.53-6.53
					C299.61,266.98,302.53,269.91,302.53,273.51z"/>
				<path class="st58" d="M261.84,326.68c0,2.08-1.69,3.77-3.77,3.77c-2.08,0-3.77-1.69-3.77-3.77c0-2.08,1.69-3.77,3.77-3.77
					C260.15,322.91,261.84,324.6,261.84,326.68z"/>
			</g>
		</g>
	</g>
	<g>
		<circle class="st59" cx="312.7" cy="254.42" r="6"/>
		<g class="st52">
			<path d="M240.36,185.5c-11.72,0-22.92,2.26-33.17,6.36c-0.32,0.56-0.64,1.13-0.95,1.72l0,0c0,0,0,0,0,0
				c-0.29,0.54-0.57,1.1-0.85,1.66c0,0,0,0,0,0h0c-2.29,4.68-4.15,10.1-5.3,16.37c-0.55,1.07-0.97,2.22-1.22,3.45
				c-1.44,7.11-1.62,14.83-0.55,22.93c0.88,6.7,6.61,11.58,13.19,11.58c0.58,0,1.17-0.04,1.76-0.12
				c7.29-0.96,12.43-7.66,11.47-14.95c-0.28-2.09-0.42-4.11-0.45-6.05l0.79,0.79c2.01,2.02,5.27,2.03,7.29,0.02
				c2.02-2.01,2.03-5.27,0.02-7.29l-7.58-7.62c-0.32-1.24-0.82-2.41-1.47-3.5c0.55-1.71,1.2-3.3,1.91-4.77
				c0.31-0.65,0.64-1.28,0.98-1.89c1.82-3.24,3.99-5.89,6.27-8.05c0.44-0.41,0.88-0.8,1.33-1.18c2.3-1.96,4.68-3.46,6.9-4.6
				c0.57-0.29,1.12-0.56,1.66-0.81c0.32-0.15,0.63-0.29,0.94-0.42c1.77-0.75,3.26-1.91,4.4-3.34
				C245.3,185.6,242.84,185.5,240.36,185.5z"/>
			<path d="M312.57,272.98c5.06-6.42,8.83-13.15,11.23-20c0.42-1.19,0.64-2.4,0.71-3.59c1.2-3.26,2.08-6.4,2.72-9.43
				c-6.61-15.04-17.24-27.91-30.54-37.25c0.23,1.87,0.93,3.69,2.11,5.28c0.2,0.27,0.4,0.55,0.6,0.84c0.34,0.49,0.68,1,1.02,1.54
				c1.33,2.11,2.6,4.62,3.58,7.48c0.19,0.55,0.37,1.12,0.54,1.7c0.86,3.02,1.37,6.41,1.28,10.12c-0.02,0.7-0.06,1.41-0.12,2.13h0
				c-0.14,1.63-0.4,3.33-0.79,5.08c-1.11,0.6-2.14,1.36-3.05,2.26l-10.41,2.69c-2.76,0.71-4.42,3.52-3.7,6.28
				c0.71,2.76,3.52,4.42,6.28,3.7l1.08-0.28c-1.02,1.66-2.17,3.32-3.47,4.98c-4.55,5.78-3.55,14.16,2.23,18.71
				c0.47,0.37,0.95,0.7,1.45,1C300.97,279.56,308.38,278.29,312.57,272.98z"/>
		</g>
		<g>
			<g>
				<path class="st5" d="M307.62,259.46c5.25,1.7,11.08-0.72,13.52-5.84c11.08-23.3,6.42-41.6,0.56-52.86
					c-1.67-3.2-3.51-6-5.35-8.41c-4.65-6.11-13.89-5.96-18.34,0.29l0,0c-2.8,3.93-2.71,9.19,0.15,13.08
					c5.21,7.08,11.25,20.34,2.89,38.08c-2.49,5.29-0.68,11.76,4.38,14.68C306.14,258.89,306.88,259.22,307.62,259.46z"/>
			</g>
			<g>
				<path class="st3" d="M294.68,273.95c5.66,3.36,13.07,2.09,17.25-3.23c5.06-6.42,8.83-13.15,11.23-20
					c2.43-6.95-1.23-14.55-8.18-16.97c-6.95-2.43-14.55,1.23-16.97,8.18c-1.42,4.07-3.78,8.21-7.02,12.32
					c-4.55,5.78-3.55,14.16,2.23,18.71C293.69,273.32,294.18,273.65,294.68,273.95z"/>
			</g>
			<path class="st3" d="M293.38,249.54l11.24-2.9c2.76-0.71,4.42-3.52,3.7-6.28l0,0c-0.71-2.76-3.52-4.42-6.28-3.7l-11.24,2.9
				c-2.76,0.71-4.42,3.52-3.7,6.28l0,0C287.81,248.6,290.62,250.25,293.38,249.54z"/>
			<path class="st60" d="M320.07,197.87c0.37,0.62,0.73,1.26,1.09,1.92c-5.59-1.45-14.69-1.73-21.39,8.31
				c-0.34-0.54-0.68-1.06-1.02-1.54C305.33,197.22,314.06,196.72,320.07,197.87z"/>
			<path class="st60" d="M303.9,217.28c-0.17-0.58-0.35-1.14-0.54-1.7c9.36-6.02,17.49-5.48,22.58-4.02
				c0.17,0.63,0.34,1.28,0.49,1.93C321.77,211.92,313.55,210.9,303.9,217.28z"/>
			<path class="st60" d="M327.79,228.47c-0.03,0.62-0.07,1.24-0.12,1.87c-5.15-3.41-13.79-6.92-22.61-0.81
				c0.06-0.72,0.1-1.43,0.12-2.13C313.88,222.1,322.37,225.15,327.79,228.47z"/>
		</g>
	</g>
	<g>
		<g>
			<path class="st5" d="M209.16,227.76c-5.38-1.22-9.16-6.27-8.64-11.92c2.36-25.69,15.71-39.05,26.49-45.74
				c3.07-1.9,6.09-3.37,8.89-4.5c7.12-2.88,14.98,1.96,15.63,9.61l0,0c0.4,4.81-2.36,9.29-6.81,11.17
				c-8.1,3.43-20.05,11.75-21.93,31.27c-0.56,5.82-5.42,10.46-11.26,10.39C210.71,228.03,209.92,227.93,209.16,227.76z"/>
		</g>
		<g>
			<path class="st3" d="M212.89,246.83c-6.58,0-12.31-4.88-13.19-11.58c-1.07-8.1-0.88-15.82,0.55-22.93
				c1.46-7.21,8.49-11.88,15.7-10.42c7.21,1.46,11.88,8.48,10.42,15.7c-0.85,4.22-0.94,8.99-0.25,14.17
				c0.96,7.29-4.17,13.99-11.47,14.95C214.06,246.79,213.47,246.83,212.89,246.83z"/>
		</g>
		<path class="st3" d="M226.46,226.5l-8.18-8.23c-2.01-2.02-2-5.29,0.02-7.29l0,0c2.02-2.01,5.29-2,7.29,0.02l8.18,8.23
			c2.01,2.02,2,5.29-0.02,7.29l0,0C231.73,228.53,228.47,228.52,226.46,226.5z"/>
		<path class="st60" d="M229.62,168.79c-0.64,0.35-1.28,0.71-1.92,1.09c5.55,1.61,13.52,6.01,14.15,18.07
			c0.57-0.29,1.12-0.56,1.67-0.81C242.63,175.76,235.37,170.87,229.62,168.79z"/>
		<path class="st60" d="M233.62,193.74c0.44-0.41,0.88-0.81,1.33-1.19c-4.98-9.95-12.24-13.64-17.37-14.99
			c-0.47,0.46-0.94,0.93-1.41,1.41C220.98,180.01,228.57,183.32,233.62,193.74z"/>
		<path class="st60" d="M207.36,191.17c-0.29,0.55-0.57,1.1-0.85,1.67c6.16-0.3,15.39,1.09,19.86,10.84
			c0.32-0.65,0.64-1.28,0.98-1.89C222.58,192.79,213.71,191.08,207.36,191.17z"/>
	</g>
	<linearGradient id="SVGID_45_" gradientUnits="userSpaceOnUse" x1="168.281" y1="354.2712" x2="348.1601" y2="491.1357">
		<stop  offset="0" style="stop-color:#FF9A00"/>
		<stop  offset="1" style="stop-color:#FF6509"/>
	</linearGradient>
	<circle class="st61" cx="263.37" cy="426.62" r="14.87"/>
</g>
<g id="DESIGNED_BY_FREEPIK">
</g>
</svg>
